<mxfile host="app.diagrams.net" modified="2022-05-23T15:34:35.307Z" agent="5.0 (Windows NT 10.0; Win64; x64) AppleWebKit/537.36 (KHTML, like Gecko) Chrome/101.0.4951.67 Safari/537.36" etag="UISQr1OWRMMb4ok7uoR3" version="18.1.1" type="github">
  <diagram id="945-n0ijxelAPnwPbd-O" name="第 1 页">
    <mxGraphModel dx="688" dy="575" grid="1" gridSize="10" guides="1" tooltips="1" connect="1" arrows="1" fold="1" page="1" pageScale="1" pageWidth="827" pageHeight="1169" math="0" shadow="0">
      <root>
        <mxCell id="0" />
        <mxCell id="1" parent="0" />
        <mxCell id="Ski_DoKfzQfO5jjyNHO1-1" style="edgeStyle=orthogonalEdgeStyle;rounded=0;orthogonalLoop=1;jettySize=auto;html=1;exitX=0.5;exitY=1;exitDx=0;exitDy=0;entryX=0.5;entryY=0;entryDx=0;entryDy=0;" edge="1" parent="1" source="Ski_DoKfzQfO5jjyNHO1-2" target="Ski_DoKfzQfO5jjyNHO1-4">
          <mxGeometry relative="1" as="geometry" />
        </mxCell>
        <mxCell id="Ski_DoKfzQfO5jjyNHO1-2" value="第四章" style="rounded=1;whiteSpace=wrap;html=1;" vertex="1" parent="1">
          <mxGeometry x="280" y="80" width="120" height="20" as="geometry" />
        </mxCell>
        <mxCell id="Ski_DoKfzQfO5jjyNHO1-3" style="edgeStyle=orthogonalEdgeStyle;rounded=0;orthogonalLoop=1;jettySize=auto;html=1;exitX=0.5;exitY=1;exitDx=0;exitDy=0;entryX=0.5;entryY=0;entryDx=0;entryDy=0;" edge="1" parent="1" source="Ski_DoKfzQfO5jjyNHO1-4">
          <mxGeometry relative="1" as="geometry">
            <mxPoint x="340" y="160" as="targetPoint" />
          </mxGeometry>
        </mxCell>
        <mxCell id="Ski_DoKfzQfO5jjyNHO1-4" value="情绪管理中心" style="rounded=0;whiteSpace=wrap;html=1;" vertex="1" parent="1">
          <mxGeometry x="280" y="120" width="120" height="20" as="geometry" />
        </mxCell>
        <mxCell id="Ski_DoKfzQfO5jjyNHO1-5" style="edgeStyle=orthogonalEdgeStyle;rounded=0;orthogonalLoop=1;jettySize=auto;html=1;exitX=0.5;exitY=1;exitDx=0;exitDy=0;entryX=0.5;entryY=0;entryDx=0;entryDy=0;" edge="1" parent="1" target="Ski_DoKfzQfO5jjyNHO1-12">
          <mxGeometry relative="1" as="geometry">
            <mxPoint x="340" y="220" as="sourcePoint" />
          </mxGeometry>
        </mxCell>
        <mxCell id="Ski_DoKfzQfO5jjyNHO1-7" style="edgeStyle=orthogonalEdgeStyle;rounded=0;orthogonalLoop=1;jettySize=auto;html=1;exitX=0.5;exitY=1;exitDx=0;exitDy=0;" edge="1" parent="1" source="Ski_DoKfzQfO5jjyNHO1-8">
          <mxGeometry relative="1" as="geometry">
            <mxPoint x="340" y="200" as="targetPoint" />
          </mxGeometry>
        </mxCell>
        <mxCell id="Ski_DoKfzQfO5jjyNHO1-8" value="选择解压方式" style="rounded=0;whiteSpace=wrap;html=1;" vertex="1" parent="1">
          <mxGeometry x="280" y="160" width="120" height="20" as="geometry" />
        </mxCell>
        <mxCell id="Ski_DoKfzQfO5jjyNHO1-30" value="低" style="edgeStyle=orthogonalEdgeStyle;rounded=0;orthogonalLoop=1;jettySize=auto;html=1;exitX=0.5;exitY=1;exitDx=0;exitDy=0;entryX=0.5;entryY=0;entryDx=0;entryDy=0;" edge="1" parent="1" source="Ski_DoKfzQfO5jjyNHO1-12" target="Ski_DoKfzQfO5jjyNHO1-14">
          <mxGeometry relative="1" as="geometry" />
        </mxCell>
        <mxCell id="Ski_DoKfzQfO5jjyNHO1-31" style="edgeStyle=orthogonalEdgeStyle;rounded=0;orthogonalLoop=1;jettySize=auto;html=1;exitX=1;exitY=0.5;exitDx=0;exitDy=0;entryX=0;entryY=0.5;entryDx=0;entryDy=0;" edge="1" parent="1" source="Ski_DoKfzQfO5jjyNHO1-12" target="Ski_DoKfzQfO5jjyNHO1-18">
          <mxGeometry relative="1" as="geometry">
            <Array as="points">
              <mxPoint x="410" y="220" />
              <mxPoint x="410" y="90" />
            </Array>
          </mxGeometry>
        </mxCell>
        <mxCell id="Ski_DoKfzQfO5jjyNHO1-32" value="高" style="edgeLabel;html=1;align=center;verticalAlign=middle;resizable=0;points=[];" vertex="1" connectable="0" parent="Ski_DoKfzQfO5jjyNHO1-31">
          <mxGeometry x="-0.4894" y="1" relative="1" as="geometry">
            <mxPoint as="offset" />
          </mxGeometry>
        </mxCell>
        <mxCell id="Ski_DoKfzQfO5jjyNHO1-12" value="抑郁值判断" style="rhombus;whiteSpace=wrap;html=1;" vertex="1" parent="1">
          <mxGeometry x="280" y="200" width="120" height="40" as="geometry" />
        </mxCell>
        <mxCell id="Ski_DoKfzQfO5jjyNHO1-13" style="edgeStyle=orthogonalEdgeStyle;rounded=0;orthogonalLoop=1;jettySize=auto;html=1;exitX=0.5;exitY=1;exitDx=0;exitDy=0;entryX=0.5;entryY=0;entryDx=0;entryDy=0;" edge="1" parent="1" source="Ski_DoKfzQfO5jjyNHO1-14" target="Ski_DoKfzQfO5jjyNHO1-16">
          <mxGeometry relative="1" as="geometry" />
        </mxCell>
        <mxCell id="Ski_DoKfzQfO5jjyNHO1-14" value="抑郁值降低" style="rounded=0;whiteSpace=wrap;html=1;" vertex="1" parent="1">
          <mxGeometry x="280" y="280" width="120" height="20" as="geometry" />
        </mxCell>
        <mxCell id="Ski_DoKfzQfO5jjyNHO1-33" style="edgeStyle=orthogonalEdgeStyle;rounded=0;orthogonalLoop=1;jettySize=auto;html=1;exitX=1;exitY=0.5;exitDx=0;exitDy=0;entryX=0;entryY=0.5;entryDx=0;entryDy=0;" edge="1" parent="1" source="Ski_DoKfzQfO5jjyNHO1-16" target="Ski_DoKfzQfO5jjyNHO1-20">
          <mxGeometry relative="1" as="geometry" />
        </mxCell>
        <mxCell id="Ski_DoKfzQfO5jjyNHO1-16" value="获得贴图" style="rounded=0;whiteSpace=wrap;html=1;" vertex="1" parent="1">
          <mxGeometry x="280" y="320" width="120" height="20" as="geometry" />
        </mxCell>
        <mxCell id="Ski_DoKfzQfO5jjyNHO1-17" style="edgeStyle=orthogonalEdgeStyle;rounded=0;orthogonalLoop=1;jettySize=auto;html=1;exitX=0.5;exitY=1;exitDx=0;exitDy=0;entryX=0.5;entryY=0;entryDx=0;entryDy=0;" edge="1" parent="1" source="Ski_DoKfzQfO5jjyNHO1-18" target="Ski_DoKfzQfO5jjyNHO1-20">
          <mxGeometry relative="1" as="geometry" />
        </mxCell>
        <mxCell id="Ski_DoKfzQfO5jjyNHO1-18" value="抑郁值升高" style="rounded=0;whiteSpace=wrap;html=1;" vertex="1" parent="1">
          <mxGeometry x="440" y="80" width="120" height="20" as="geometry" />
        </mxCell>
        <mxCell id="Ski_DoKfzQfO5jjyNHO1-19" style="edgeStyle=orthogonalEdgeStyle;rounded=0;orthogonalLoop=1;jettySize=auto;html=1;exitX=0.5;exitY=1;exitDx=0;exitDy=0;entryX=0.5;entryY=0;entryDx=0;entryDy=0;" edge="1" parent="1" source="Ski_DoKfzQfO5jjyNHO1-20" target="Ski_DoKfzQfO5jjyNHO1-22">
          <mxGeometry relative="1" as="geometry" />
        </mxCell>
        <mxCell id="Ski_DoKfzQfO5jjyNHO1-20" value="进入考场" style="rounded=0;whiteSpace=wrap;html=1;" vertex="1" parent="1">
          <mxGeometry x="440" y="120" width="120" height="20" as="geometry" />
        </mxCell>
        <mxCell id="Ski_DoKfzQfO5jjyNHO1-21" style="edgeStyle=orthogonalEdgeStyle;rounded=0;orthogonalLoop=1;jettySize=auto;html=1;exitX=0.5;exitY=1;exitDx=0;exitDy=0;entryX=0.5;entryY=0;entryDx=0;entryDy=0;" edge="1" parent="1" source="Ski_DoKfzQfO5jjyNHO1-22" target="Ski_DoKfzQfO5jjyNHO1-26">
          <mxGeometry relative="1" as="geometry" />
        </mxCell>
        <mxCell id="Ski_DoKfzQfO5jjyNHO1-22" value="玩家填涂答题卡" style="rounded=0;whiteSpace=wrap;html=1;" vertex="1" parent="1">
          <mxGeometry x="440" y="160" width="120" height="20" as="geometry" />
        </mxCell>
        <mxCell id="Ski_DoKfzQfO5jjyNHO1-23" value="错误" style="edgeStyle=orthogonalEdgeStyle;rounded=0;orthogonalLoop=1;jettySize=auto;html=1;exitX=0.5;exitY=1;exitDx=0;exitDy=0;entryX=0.5;entryY=0;entryDx=0;entryDy=0;" edge="1" parent="1" source="Ski_DoKfzQfO5jjyNHO1-26" target="Ski_DoKfzQfO5jjyNHO1-27">
          <mxGeometry relative="1" as="geometry" />
        </mxCell>
        <mxCell id="Ski_DoKfzQfO5jjyNHO1-24" style="edgeStyle=orthogonalEdgeStyle;rounded=0;orthogonalLoop=1;jettySize=auto;html=1;exitX=1;exitY=0.5;exitDx=0;exitDy=0;entryX=1;entryY=0.5;entryDx=0;entryDy=0;" edge="1" parent="1" source="Ski_DoKfzQfO5jjyNHO1-26" target="Ski_DoKfzQfO5jjyNHO1-28">
          <mxGeometry relative="1" as="geometry" />
        </mxCell>
        <mxCell id="Ski_DoKfzQfO5jjyNHO1-25" value="正确" style="edgeLabel;html=1;align=center;verticalAlign=middle;resizable=0;points=[];" vertex="1" connectable="0" parent="Ski_DoKfzQfO5jjyNHO1-24">
          <mxGeometry x="-0.216" y="1" relative="1" as="geometry">
            <mxPoint as="offset" />
          </mxGeometry>
        </mxCell>
        <mxCell id="Ski_DoKfzQfO5jjyNHO1-26" value="填涂正确" style="rhombus;whiteSpace=wrap;html=1;" vertex="1" parent="1">
          <mxGeometry x="440" y="200" width="120" height="40" as="geometry" />
        </mxCell>
        <mxCell id="Ski_DoKfzQfO5jjyNHO1-35" style="edgeStyle=orthogonalEdgeStyle;rounded=0;orthogonalLoop=1;jettySize=auto;html=1;exitX=0;exitY=0.75;exitDx=0;exitDy=0;entryX=0;entryY=0.75;entryDx=0;entryDy=0;" edge="1" parent="1" source="Ski_DoKfzQfO5jjyNHO1-27" target="Ski_DoKfzQfO5jjyNHO1-34">
          <mxGeometry relative="1" as="geometry">
            <Array as="points">
              <mxPoint x="430" y="295" />
              <mxPoint x="430" y="375" />
            </Array>
          </mxGeometry>
        </mxCell>
        <mxCell id="Ski_DoKfzQfO5jjyNHO1-27" value="抑郁值升高" style="rounded=0;whiteSpace=wrap;html=1;" vertex="1" parent="1">
          <mxGeometry x="440" y="280" width="120" height="20" as="geometry" />
        </mxCell>
        <mxCell id="Ski_DoKfzQfO5jjyNHO1-36" style="edgeStyle=orthogonalEdgeStyle;rounded=0;orthogonalLoop=1;jettySize=auto;html=1;exitX=0.5;exitY=1;exitDx=0;exitDy=0;entryX=0.5;entryY=0;entryDx=0;entryDy=0;" edge="1" parent="1" source="Ski_DoKfzQfO5jjyNHO1-28" target="Ski_DoKfzQfO5jjyNHO1-34">
          <mxGeometry relative="1" as="geometry" />
        </mxCell>
        <mxCell id="Ski_DoKfzQfO5jjyNHO1-28" value="抑郁值降低" style="rounded=0;whiteSpace=wrap;html=1;" vertex="1" parent="1">
          <mxGeometry x="440" y="320" width="120" height="20" as="geometry" />
        </mxCell>
        <mxCell id="Ski_DoKfzQfO5jjyNHO1-34" value="考试结束" style="rounded=0;whiteSpace=wrap;html=1;" vertex="1" parent="1">
          <mxGeometry x="440" y="360" width="120" height="20" as="geometry" />
        </mxCell>
      </root>
    </mxGraphModel>
  </diagram>
</mxfile>
